<?xml version="1.0" encoding="UTF-8" standalone="no"?>
<svg
   xmlns:dc="http://purl.org/dc/elements/1.1/"
   xmlns:cc="http://creativecommons.org/ns#"
   xmlns:rdf="http://www.w3.org/1999/02/22-rdf-syntax-ns#"
   xmlns:svg="http://www.w3.org/2000/svg"
   xmlns="http://www.w3.org/2000/svg"
   id="svg8"
   version="1.1"
   viewBox="0 0 210 297"
   height="297mm"
   width="210mm">
  <defs
     id="defs2" />
  <metadata
     id="metadata5">
    <rdf:RDF>
      <cc:Work
         rdf:about="">
        <dc:format>image/svg+xml</dc:format>
        <dc:type
           rdf:resource="http://purl.org/dc/dcmitype/StillImage" />
        <dc:title></dc:title>
      </cc:Work>
    </rdf:RDF>
  </metadata>
  <g
     id="layer1">
    <path
       id="path843"
       d="M 19.91158,14.362474 18.441597,38.149461 16.971615,40.421253 36.348656,36.14494 47.440341,25.855064 v 0"
       style="fill:none;stroke:#000000;stroke-width:1.5875;stroke-linecap:round;stroke-linejoin:round;stroke-opacity:1;stroke-miterlimit:4;stroke-dasharray:none;paint-order:normal" />
    <path
       id="path849"
       d="m 47.440341,25.855064 c -3.696954,3.429704 -7.394183,6.859663 -8.196037,9.443471 -0.801854,2.583809 1.291601,4.320931 5.790737,3.207232 4.499137,-1.113699 11.403687,-5.078247 14.276676,-8.463573 2.872989,-3.385326 1.714769,-6.191784 -0.808533,-6.842272 -2.523301,-0.650488 -6.919847,1.051401 -11.062843,2.655142"
       style="fill:none;stroke:#000000;stroke-width:1.5875;stroke-linecap:round;stroke-linejoin:round;stroke-opacity:1;stroke-miterlimit:4;stroke-dasharray:none" />
    <path
       id="path861"
       d="M 78.0427,17.970613 C 81.740173,13.694018 85.437401,9.4177049 84.368536,7.5023893 83.29967,5.5870738 77.463901,6.0325524 74.122879,12.179908 70.781857,18.327265 69.935545,30.175639 69.022434,35.94437 68.109323,41.7131 67.12936,41.401293 66.149209,41.089426"
       style="fill:none;stroke:#000000;stroke-width:1.5875;stroke-linecap:round;stroke-linejoin:round;stroke-opacity:1;stroke-miterlimit:4;stroke-dasharray:none" />
    <path
       id="path865"
       d="m 63.877417,27.45868 c 0.445607,-0.891214 0.891057,-1.782113 3.295765,-2.360999 2.404708,-0.578887 6.771667,-0.846251 9.644787,-1.358571 2.87312,-0.51232 4.254102,-1.269633 5.634679,-2.026724"
       style="fill:none;stroke:#000000;stroke-width:1.5875;stroke-linecap:round;stroke-linejoin:round;stroke-opacity:1;stroke-miterlimit:4;stroke-dasharray:none" />
    <path
       id="path869"
       d="m 92.475255,11.689779 c -1.157925,-0.08907 -2.316092,-0.178161 -3.095712,0.178115 -0.779621,0.356275 -1.180441,1.157915 -1.581505,1.960041"
       style="fill:none;stroke:#000000;stroke-width:1.85208333;stroke-linecap:round;stroke-linejoin:round;stroke-opacity:1;stroke-miterlimit:4;stroke-dasharray:none" />
    <path
       id="path873"
       d="m 86.72896,21.311482 c -1.202631,4.587814 -2.405343,9.175941 -3.006741,12.271892 -0.601397,3.095951 -0.601397,4.699458 -0.601397,6.303341"
       style="fill:none;stroke:#000000;stroke-width:1.5875;stroke-linecap:round;stroke-linejoin:round;stroke-opacity:1;stroke-miterlimit:4;stroke-dasharray:none" />
    <path
       id="path877"
       d="m 117.19769,6.077119 c 0.62391,-0.044565 1.24754,-0.08911 1.73729,0.1780032 0.48975,0.2671133 0.84627,0.8464585 -0.17393,6.9061068 -1.0202,6.059648 -3.43419,17.682561 -5.83968,29.264547"
       style="fill:none;stroke:#000000;stroke-width:1.5875;stroke-linecap:round;stroke-linejoin:round;stroke-opacity:1;stroke-miterlimit:4;stroke-dasharray:none" />
    <path
       id="path881"
       d="m 129.75935,9.0170838 c 0.80205,0.089116 1.60386,0.1782059 1.71526,0.890558 0.11139,0.7123522 -0.46786,2.0490872 -1.04708,3.3857542"
       style="fill:none;stroke:#000000;stroke-width:1.32291667;stroke-linecap:round;stroke-linejoin:miter;stroke-opacity:1;stroke-miterlimit:4;stroke-dasharray:none" />
    <path
       id="path885"
       d="m 129.49208,21.311482 c -1.15805,3.206915 -2.31622,6.414151 -3.1849,9.554728 -0.86868,3.140576 -1.44771,6.213869 -2.02685,9.287774"
       style="fill:none;stroke:#000000;stroke-width:1.5875;stroke-linecap:round;stroke-linejoin:round;stroke-opacity:1;stroke-miterlimit:4;stroke-dasharray:none" />
    <path
       id="path889"
       d="m 148.46822,16.50063 c 2.85108,-4.365708 5.70195,-8.7311116 5.1008,-10.0451626 -0.60116,-1.314051 -4.65503,0.4233212 -7.90703,6.7044966 -3.252,6.281176 -5.70178,17.104736 -8.15182,27.929462"
       style="fill:none;stroke:#000000;stroke-width:1.5875;stroke-linecap:round;stroke-linejoin:round;stroke-opacity:1;stroke-miterlimit:4;stroke-dasharray:none" />
    <path
       id="path897"
       d="m 132.96659,26.255968 c 0.40103,-0.980309 0.80194,-1.960295 3.47389,-2.427864 2.67196,-0.467568 7.61806,-0.423009 12.56228,-0.378466"
       style="fill:none;stroke:#000000;stroke-width:1.5875;stroke-linecap:round;stroke-linejoin:round;stroke-opacity:1;stroke-miterlimit:4;stroke-dasharray:none" />
    <path
       id="path901"
       d="m 149.9382,29.463203 c 0.35632,1.692508 0.71268,3.385214 4.63326,2.494135 3.92057,-0.891079 11.40323,-4.365171 14.67714,-6.592325 3.27391,-2.227154 2.33843,-3.207183 0.24499,-3.318582 -2.09345,-0.111398 -5.34525,0.64587 -8.75311,2.338627 -3.40786,1.692757 -6.97112,4.32066 -8.86442,6.81524 -1.8933,2.494581 -2.11601,4.855264 -1.24719,6.325452 0.86882,1.470187 2.82856,2.049201 6.36973,1.225123 3.54117,-0.824078 8.66428,-3.051518 13.78663,-5.278629"
       style="fill:none;stroke:#000000;stroke-width:1.5875;stroke-linecap:round;stroke-linejoin:round;stroke-opacity:1;stroke-miterlimit:4;stroke-dasharray:none" />
  </g>
</svg>
